<svg xmlns="http://www.w3.org/2000/svg" xmlns:xlink="http://www.w3.org/1999/xlink" aria-hidden="true" role="img" class="iconify iconify--logos" width="35.93" height="32" preserveAspectRatio="xMidYMid meet" viewBox="0 0 256 228"><path fill="#00D8FF" d="M210.483 73.824a171.49 171.49 0 0 0-8.24-2.597c.465-1.9.893-3.777 1.273-5.621c6.238-30.281 2.16-54.676-11.769-62.708c-13.355-7.7-35.196.329-57.254 19.526a171.23 171.23 0 0 0-6.375 5.848a155.866 155.866 0 0 0-4.241-3.917C100.759 3.829 77.587-4.822 63.673 3.233C49.33 11.558 45.248 35.716 51.995 66.473a170.974 170.974 0 0 0 1.892 8.48c-3.28.932-6.445 1.924-9.474 2.98C17.309 86.487 0 98.307 0 110.027c0 11.721 17.309 23.541 44.413 30.902a145.52 145.52 0 0 0 9.61 2.836a167.467 167.467 0 0 0-1.964 8.723c-6.747 30.757-2.665 54.915 11.678 63.24c13.914 8.055 37.086-.596 60.274-20.329a145.567 145.567 0 0 0 4.319-3.995c1.98 1.82 4.069 3.717 6.258 5.68c22.058 19.197 43.899 27.226 57.254 19.526c13.929-8.032 18.007-32.427 11.769-62.708a170.371 170.371 0 0 0-1.273-5.621c2.62-.84 5.158-1.718 7.601-2.637C232.691 133.568 256 121.748 256 110.027S232.691 86.487 210.483 73.824zM128.006 125.49c-8.875 0-16.063-7.196-16.063-16.072s7.188-16.072 16.063-16.072s16.063 7.196 16.063 16.072S136.881 125.49 128.006 125.49z"></path></svg> 